<svg width="20" height="35" viewBox="0 0 20 35" fill="none" xmlns="http://www.w3.org/2000/svg">
<path d="M14.0543 8.62078C14.1012 8.56718 14.3203 8.39207 15.1808 8.39207L18.002 8.39101C18.9197 8.39101 19.6661 7.63431 19.6661 6.7041V1.70651C19.6661 0.777882 18.9208 0.0211856 18.0046 0.0195936L13.814 0.0126953C11.2277 0.0126953 9.02901 0.877377 7.45573 2.51361C5.88951 4.14242 5.06151 6.41622 5.06151 9.0888V11.7842H1.85579C0.937995 11.7842 0.191406 12.5409 0.191406 13.4711V18.8534C0.191406 19.7836 0.937995 20.5403 1.85579 20.5403H5.06151V33.102C5.06151 34.0322 5.8081 34.7889 6.72589 34.7889H12.2206C13.1384 34.7889 13.885 34.0322 13.885 33.102V20.5406H17.8035C18.7213 20.5406 19.4676 19.7836 19.4676 18.854L19.4697 13.4714C19.4697 12.8603 19.1417 12.2949 18.6135 11.9959C18.3687 11.8574 18.0839 11.7842 17.7902 11.7842H13.885V9.65473C13.885 8.96065 13.9771 8.70939 14.0543 8.62078Z" fill="white"/>
</svg>
